<svg width="56" height="56" viewBox="0 0 56 56" fill="none" xmlns="http://www.w3.org/2000/svg">
<circle cx="28" cy="28" r="28" fill="#EAEAEA"/>
<g clip-path="url(#clip0_1274_7465)">
<path d="M38.4238 28.0738C35.1151 22.1278 27.6252 19.9827 21.6949 23.2827C15.7646 26.5827 13.6395 34.078 16.9483 40.0241C20.257 45.9701 27.7466 48.1153 33.6769 44.8153C39.6072 41.5153 41.7325 34.0198 38.4238 28.0738Z" fill="#97C9E8"/>
<path d="M21.6949 23.2833C21.1439 23.5899 20.6258 23.933 20.1415 24.3077C25.7386 22.2196 32.1796 24.4854 35.1808 29.879C38.182 35.2722 36.7124 41.9403 31.9876 45.596C32.5612 45.3819 33.1259 45.1225 33.6769 44.8158C39.6072 41.5159 41.7325 34.0204 38.4238 28.0744C35.115 22.1283 27.6252 19.9833 21.6949 23.2833V23.2833Z" fill="#60B6FF"/>
<path d="M22.6276 28.2436C21.5503 30.2004 21.2326 32.5493 23.2014 33.8973C25.1699 35.2455 26.8338 33.3693 28.6023 32.0458C30.3705 30.7225 32.211 37.4362 34.1558 38.2547C36.1005 39.073 37.6901 34.3872 36.3418 32.694C34.3456 30.187 33.6451 29.3074 36.2709 25.267L36.2791 25.2578C32.6608 21.708 27.1097 20.6692 22.3795 22.9301L22.388 22.9466C22.388 22.9466 23.705 26.2864 22.6276 28.2436V28.2436Z" fill="#BAEB6C"/>
<path d="M29.7448 21.915C29.7452 21.9152 29.7459 21.9152 29.7466 21.9153C29.7459 21.9152 29.7454 21.9151 29.7448 21.915Z" fill="#BAEB6C"/>
<path d="M23.2636 42.89C22.3453 42.409 22.729 39.8617 22.2896 38.3415C21.8498 36.8215 20.0465 37.9607 19.2185 37.8106C18.39 37.6604 16.4902 36.0707 15.6619 35.9208L15.5309 35.8995C15.7479 37.3089 16.2139 38.7045 16.9482 40.0241C18.9285 43.5827 22.4062 45.7792 26.1512 46.2625L26.0289 46.035C26.0289 46.035 25.462 44.0426 23.2636 42.89V42.89Z" fill="#BAEB6C"/>
<path d="M36.3417 32.6934C36.332 32.6813 36.3224 32.6694 36.3127 32.6568C36.569 33.6015 36.7082 34.5612 36.7356 35.5167C36.9456 34.4559 36.8645 33.3497 36.3417 32.6934Z" fill="#BAEB6C"/>
<path d="M22.3795 22.9301L22.388 22.9466C22.388 22.9466 22.4978 23.2256 22.6282 23.6686C27.1866 22.9986 31.8831 24.9502 34.5856 28.9144C34.699 28.0013 35.2167 26.889 36.2709 25.2669L36.2791 25.2578C32.6605 21.7081 27.1094 20.6693 22.3795 22.9301V22.9301Z" fill="#96D629"/>
<path d="M20.7836 28.6291C15.1005 30.6377 8.24125 25.8923 8.24125 25.8923C8.24125 25.8923 10.5957 17.8904 16.2785 15.8818C21.9614 13.8734 28.8206 18.6188 28.8206 18.6188C28.8206 18.6188 26.4662 26.6206 20.7836 28.6291Z" fill="#49CB5C"/>
<path d="M16.2786 15.8818C15.1934 16.2654 14.2303 16.8677 13.3812 17.5907C18.9781 15.9394 25.513 20.4591 25.513 20.4591C25.513 20.4591 23.9713 25.6965 20.3731 28.7605C20.5106 28.7202 20.6474 28.6769 20.7836 28.6289C26.4662 26.6204 28.8206 18.6186 28.8206 18.6186C28.8206 18.6186 21.9614 13.8732 16.2786 15.8818Z" fill="#07B128"/>
<path d="M31.1741 14.536C30.733 10.4646 34.9418 6.66913 34.9418 6.66913C34.9418 6.66913 39.8662 9.47461 40.3075 13.5458C40.7488 17.617 36.5397 21.4124 36.5397 21.4124C36.5397 21.4124 31.6155 18.6072 31.1741 14.536V14.536Z" fill="#49CB5C"/>
<path d="M34.942 6.66928C34.942 6.66928 33.985 7.53294 33.0314 8.87741C34.4839 9.91886 37.1356 12.1967 37.4539 15.134C37.6845 17.2638 36.6428 19.3179 35.5966 20.7929C36.1573 21.1948 36.5397 21.4127 36.5397 21.4127C36.5397 21.4127 40.7488 17.6173 40.3075 13.5461C39.8664 9.47476 34.942 6.66928 34.942 6.66928V6.66928Z" fill="#07B128"/>
<path d="M37.8333 8.16251C36.514 6.9209 35.2628 6.20241 35.21 6.17242C35.0055 6.05596 34.7352 6.08659 34.5617 6.24285C34.5169 6.28337 33.4484 7.25318 32.4259 8.74852C31.0451 10.767 30.4186 12.7845 30.6134 14.5828C30.7757 16.0801 31.5271 17.6032 32.8015 19.0384C31.5465 18.6047 30.255 18.333 28.9518 18.2244C28.3433 17.8132 26.7926 16.83 24.7749 16.0235C24.1106 15.7581 23.6902 16.789 24.3614 17.0572C25.7212 17.6008 26.872 18.2391 27.6253 18.6984L22.7139 20.3004L15.3086 16.9007C15.7207 16.679 16.1528 16.4903 16.6055 16.3432C18.0405 15.8765 19.6855 15.8241 21.4951 16.1874C22.2043 16.3296 22.4136 15.236 21.7141 15.0957C19.7149 14.6946 17.8803 14.758 16.2611 15.2844C13.7895 16.0884 11.5087 18.1075 9.66483 21.1242C8.29035 23.3727 7.64215 25.3631 7.61535 25.4467C7.52917 25.714 7.66999 26.0344 7.92919 26.1467C8.3502 26.4406 9.90486 27.4809 12.0166 28.3572C13.2617 28.874 14.4724 29.2355 15.6314 29.4412C15.5105 29.757 15.4003 30.0784 15.3033 30.4061C14.784 32.1553 14.643 33.956 14.87 35.7125C15.0705 37.2648 15.5586 38.7829 16.3272 40.1999C17.5838 42.5171 19.4873 44.3673 21.8326 45.5503C24.1236 46.7057 26.6756 47.1516 29.2125 46.8394C29.9222 46.7517 29.7872 45.647 29.0767 45.7345C28.1576 45.8475 27.2362 45.8499 26.3284 45.7479C26.1551 45.2408 25.4249 43.475 23.3677 42.3709C23.0798 42.2166 23.016 41.0169 22.9779 40.3002C22.9387 39.5616 22.898 38.7979 22.7205 38.1565C22.5319 37.4751 22.0877 37.0621 21.4359 36.9616C20.9572 36.8879 20.4455 36.9968 19.9942 37.0926C19.7011 37.1549 19.3688 37.2256 19.2204 37.1974C18.9144 37.1388 18.2138 36.6823 17.6511 36.3156C17.0267 35.9089 16.4322 35.5221 15.949 35.349C15.7352 33.3996 16.0257 31.4079 16.7684 29.5945C18.4535 29.7471 20.1677 29.5453 21.7146 28.8368C20.7367 31.1255 21.1271 33.1358 22.8314 34.3274C24.8212 35.7188 26.562 34.351 28.0983 33.1444C28.364 32.9355 28.6389 32.7195 28.9079 32.5227C29.0088 32.4487 29.0579 32.4601 29.0904 32.4672C29.6422 32.5902 30.504 34.1644 31.1333 35.3138C32.0038 36.9037 32.8261 38.4053 33.8435 38.8451C34.3624 39.0693 34.8976 39.0336 35.3944 38.7571C35.6921 38.5915 35.9757 38.3398 36.234 38.0056C37.3514 36.561 37.8243 33.8214 36.7592 32.4546C35.8279 31.2599 35.2125 30.4706 35.142 29.5974C35.0766 28.7895 35.4533 27.7982 36.4257 26.2597C37.0119 26.9196 37.5321 27.656 37.9707 28.4644C39.4671 31.2239 39.7992 34.4013 38.9058 37.4107C37.9074 40.7738 35.4165 43.5464 32.1831 44.9061C31.5246 45.1842 31.955 46.2098 32.6147 45.9322C36.1541 44.4438 38.8806 41.4084 39.973 37.7276C40.9511 34.4328 40.5876 30.9546 38.9493 27.9334C36.7768 23.9274 32.7706 21.5366 28.5297 21.2353C28.9174 20.4194 29.1757 19.7567 29.3132 19.379C30.8998 19.5614 32.4632 20.004 33.9497 20.706C37.5187 22.3915 40.2172 25.3659 41.5489 29.0814C44.2973 36.7512 40.2942 45.2276 32.6229 47.9765C28.907 49.308 24.8956 49.1132 21.3266 47.4277C17.7577 45.7422 15.059 42.7675 13.7275 39.0523C13.4878 38.3837 12.4391 38.757 12.6796 39.4277C14.1113 43.4233 17.0136 46.6217 20.8511 48.4345C24.6887 50.2469 29.0029 50.4563 32.9984 49.0246C33.8341 48.7251 34.6349 48.3612 35.3956 47.9378C38.2715 46.3375 40.5722 43.8878 42.0057 40.8528C43.8186 37.0149 44.0286 32.7011 42.5966 28.7057C41.5474 25.778 39.7078 23.2788 37.2899 21.4385C37.7005 21.0202 38.38 20.2738 39.0411 19.3071C40.4216 17.2887 41.0484 15.2711 40.8533 13.4729C40.6586 11.6742 39.6143 9.83796 37.8333 8.16251V8.16251ZM17.0431 37.2484C17.787 37.7333 18.4902 38.1913 19.0114 38.2908C19.3803 38.3612 19.791 38.274 20.2256 38.1815C21.339 37.9448 21.5293 38.0267 21.6473 38.4534C21.7926 38.9781 21.8299 39.6802 21.866 40.3592C21.9356 41.6665 22.0012 42.9011 22.841 43.3521C24.032 43.991 24.6856 44.9086 25.0134 45.5234C20.6622 44.5231 17.1861 41.053 16.1783 36.7018C16.4579 36.8674 16.7669 37.0687 17.0431 37.2484V37.2484ZM35.2586 14.5928L32.0119 12.012C32.3345 11.0087 32.8516 10.1009 33.3308 9.39756C33.739 8.7985 34.1596 8.28611 34.5078 7.89527L35.2586 14.5928ZM35.6145 7.77345C36.0387 8.08085 36.5605 8.49153 37.0884 8.99006C37.6677 9.53733 38.3181 10.253 38.8339 11.09L36.338 14.2294L35.6145 7.77345ZM31.7202 14.4629C31.6749 14.0439 31.6852 13.6261 31.738 13.2165L35.4336 16.154L35.9003 20.3166C35.4677 20.0062 34.9264 19.5832 34.3786 19.0655C33.2811 18.0293 31.9289 16.3893 31.7202 14.4629V14.4629ZM38.1359 18.6582C37.7433 19.235 37.3383 19.7314 36.9979 20.1166L36.5138 15.7974L39.3877 12.1823C39.5661 12.6305 39.6934 13.1021 39.7465 13.5928C39.9554 15.519 38.9862 17.4107 38.1359 18.6582V18.6582ZM20.4417 28.1417C20.2509 28.2037 20.0586 28.257 19.8653 28.3032L23.0529 21.3609L27.9666 19.7583C27.0598 21.9292 24.6149 26.7849 20.4417 28.1417V28.1417ZM13.8277 27.8361C11.9859 27.236 10.4036 26.3786 9.44628 25.7988L15.6995 23.7594L13.8277 27.8361ZM11.2127 20.7917L15.3645 22.6976L9.07084 24.7503C9.47141 23.7882 10.1799 22.2841 11.2127 20.7917ZM16.9245 22.1889L11.8911 19.878C12.5517 19.0493 13.3172 18.2607 14.1912 17.6127L21.1539 20.8091L16.9245 22.1889ZM17.1403 23.2894L21.6123 21.8308L18.5464 28.5076C17.3191 28.5999 16.0795 28.4407 14.9096 28.1478L17.1403 23.2894ZM35.6255 25.4436C34.3918 27.3537 33.9414 28.5655 34.0322 29.6875C34.1296 30.8921 34.8641 31.8347 35.8807 33.1392C36.4802 33.9084 36.352 36.0332 35.3533 37.3245C34.9838 37.8022 34.6245 37.9699 34.285 37.8231C33.6186 37.5353 32.782 36.0068 32.1098 34.7791C31.1795 33.0805 30.3764 31.6133 29.3325 31.3807C28.9572 31.2972 28.5834 31.3814 28.2509 31.6239C27.9662 31.832 27.6834 32.0541 27.4103 32.2688C25.7809 33.5488 24.719 34.289 23.4693 33.4151C21.4447 31.9995 22.5566 29.4979 23.1285 28.4883C23.2451 28.2828 23.3382 28.065 23.4117 27.8393C25.3651 26.4249 26.8428 24.4268 27.979 22.3218C30.7939 22.4083 33.5273 23.5034 35.6255 25.4436V25.4436Z" fill="black"/>
</g>
<defs>
<clipPath id="clip0_1274_7465">
<rect width="38" height="38" fill="white" transform="translate(3 22.4775) rotate(-29.0942)"/>
</clipPath>
</defs>
</svg>
